<?xml version="1.0" encoding="utf-8"?>
<!-- Generated by Mocodo 4.2.8 -->
<svg width="272" height="313" viewBox="0 0 272 313" xmlns="http://www.w3.org/2000/svg">
<rect x="0" y="0" width="272" height="313" fill="#ffffbf" stroke="none" stroke-width="0"/>

<!-- Association CONTIENT -->
<g>
	<line x1="38" y1="43" x2="138" y2="43" stroke="#66bd63" stroke-width="2"/>
	<line x1="138" y1="152" x2="138" y2="43" stroke="#66bd63" stroke-width="2"/>
	<g>
		<path d="M163 18 a14 14 90 0 1 14 14 V43 h-78 V32 a14 14 90 0 1 14 -14" fill="#a6d96a" stroke="#a6d96a" stroke-width="0"/>
		<path d="M177 43 v11 a14 14 90 0 1 -14 14 H113 a14 14 90 0 1 -14 -14 V43 H78" fill="#d9ef8b" stroke="#d9ef8b" stroke-width="0"/>
		<rect x="99" y="18" width="78" height="50" fill="none" rx="14" stroke="#66bd63" stroke-width="2"/>
		<line x1="99" y1="43" x2="177" y2="43" stroke="#66bd63" stroke-width="1"/>
		<text x="106" y="35.75" fill="#000000" font-family="Verdana" font-size="12">CONTIENT</text>
	</g>
	<text x="72" y="60" fill="#d73027" font-family="Verdana" font-size="12">0,N</text>
	<text x="143" y="85" fill="#d73027" font-family="Verdana" font-size="12">1,1</text>
</g>

<!-- Association POSSEDE -->
<g>
	<line x1="138" y1="152" x2="138" y2="270" stroke="#66bd63" stroke-width="2"/>
	<line x1="235" y1="270" x2="138" y2="270" stroke="#66bd63" stroke-width="2"/>
	<g>
		<path d="M161 245 a14 14 90 0 1 14 14 V270 h-74 V259 a14 14 90 0 1 14 -14" fill="#a6d96a" stroke="#a6d96a" stroke-width="0"/>
		<path d="M175 270 v11 a14 14 90 0 1 -14 14 H115 a14 14 90 0 1 -14 -14 V270 H74" fill="#d9ef8b" stroke="#d9ef8b" stroke-width="0"/>
		<rect x="101" y="245" width="74" height="50" fill="none" rx="14" stroke="#66bd63" stroke-width="2"/>
		<line x1="101" y1="270" x2="175" y2="270" stroke="#66bd63" stroke-width="1"/>
		<text x="109" y="262.75" fill="#000000" font-family="Verdana" font-size="12">POSSEDE</text>
	</g>
	<text x="143" y="228" fill="#d73027" font-family="Verdana" font-size="12">0,N</text>
	<text x="180" y="287" fill="#d73027" font-family="Verdana" font-size="12">0,N</text>
</g>

<!-- Entity LISTE -->
<g>
	<g>
		<rect x="9" y="9" width="58" height="25" fill="#fdae61" stroke="none" stroke-width="0" opacity="1"/>
		<rect x="9" y="34" width="58" height="43" fill="#fee08b" stroke="none" stroke-width="0" opacity="1"/>
		<rect x="9" y="9" width="58" height="68" fill="none" stroke="#f46d43" stroke-width="2" opacity="1"/>
		<line x1="9" y1="34" x2="67" y2="34" stroke="#f46d43" stroke-width="1"/>
	</g>
	<text x="20" y="26.75" fill="#000000" font-family="Verdana" font-size="12">LISTE</text>
	<text x="14" y="51.8" fill="#000000" font-family="Verdana" font-size="12">titre</text>
	<line x1="14" y1="54" x2="40" y2="54" stroke="#000000" stroke-width="1"/>
	<text x="14" y="68.8" fill="#000000" font-family="Verdana" font-size="12">position</text>
</g>

<!-- Entity CARTE -->
<g>
	<g>
		<rect x="99" y="93" width="78" height="25" fill="#fdae61" stroke="none" stroke-width="0" opacity="1"/>
		<rect x="99" y="118" width="78" height="93" fill="#fee08b" stroke="none" stroke-width="0" opacity="1"/>
		<rect x="99" y="93" width="78" height="118" fill="none" stroke="#f46d43" stroke-width="2" opacity="1"/>
		<line x1="99" y1="118" x2="177" y2="118" stroke="#f46d43" stroke-width="1"/>
	</g>
	<text x="118" y="110.75" fill="#000000" font-family="Verdana" font-size="12">CARTE</text>
	<text x="104" y="135.8" fill="#000000" font-family="Verdana" font-size="12">code_carte</text>
	<line x1="104" y1="138" x2="171" y2="138" stroke="#000000" stroke-width="1"/>
	<text x="104" y="152.8" fill="#000000" font-family="Verdana" font-size="12">titre</text>
	<text x="104" y="169.8" fill="#000000" font-family="Verdana" font-size="12">contenu</text>
	<text x="104" y="186.8" fill="#000000" font-family="Verdana" font-size="12">couleur</text>
	<text x="104" y="203.8" fill="#000000" font-family="Verdana" font-size="12">position</text>
</g>

<!-- Entity LABEL -->
<g>
	<g>
		<rect x="207" y="236" width="56" height="25" fill="#fdae61" stroke="none" stroke-width="0" opacity="1"/>
		<rect x="207" y="261" width="56" height="43" fill="#fee08b" stroke="none" stroke-width="0" opacity="1"/>
		<rect x="207" y="236" width="56" height="68" fill="none" stroke="#f46d43" stroke-width="2" opacity="1"/>
		<line x1="207" y1="261" x2="263" y2="261" stroke="#f46d43" stroke-width="1"/>
	</g>
	<text x="216" y="253.75" fill="#000000" font-family="Verdana" font-size="12">LABEL</text>
	<text x="212" y="278.8" fill="#000000" font-family="Verdana" font-size="12">name</text>
	<line x1="212" y1="281" x2="247" y2="281" stroke="#000000" stroke-width="1"/>
	<text x="212" y="295.8" fill="#000000" font-family="Verdana" font-size="12">couleur</text>
</g>
</svg>